<svg width="89" height="89" viewBox="0 0 89 89" fill="none" xmlns="http://www.w3.org/2000/svg">
<g filter="url(#filter0_d_6_87)">
<circle cx="36.5" cy="36.5" r="36.5" transform="matrix(1 -8.74228e-08 -8.74228e-08 -1 6 79)" fill="#319F1C"/>
<circle cx="36.5" cy="36.5" r="34" transform="matrix(1 -8.74228e-08 -8.74228e-08 -1 6 79)" stroke="white" stroke-width="5"/>
</g>
<path d="M53.3983 42.9577C53.5936 43.1529 53.5936 43.4695 53.3983 43.6648L50.2164 46.8468C50.0211 47.042 49.7045 47.042 49.5093 46.8468C49.314 46.6515 49.314 46.3349 49.5093 46.1396L52.3377 43.3112L49.5093 40.4828C49.314 40.2875 49.314 39.9709 49.5093 39.7757C49.7045 39.5804 50.0211 39.5804 50.2164 39.7757L53.3983 42.9577ZM33.5781 42.8112H53.0448V43.8112H33.5781V42.8112Z" fill="white"/>
<defs>
<filter id="filter0_d_6_87" x="0" y="0" width="89" height="89" filterUnits="userSpaceOnUse" color-interpolation-filters="sRGB">
<feFlood flood-opacity="0" result="BackgroundImageFix"/>
<feColorMatrix in="SourceAlpha" type="matrix" values="0 0 0 0 0 0 0 0 0 0 0 0 0 0 0 0 0 0 127 0" result="hardAlpha"/>
<feOffset dx="2" dy="2"/>
<feGaussianBlur stdDeviation="4"/>
<feColorMatrix type="matrix" values="0 0 0 0 0 0 0 0 0 0 0 0 0 0 0 0 0 0 0.25 0"/>
<feBlend mode="normal" in2="BackgroundImageFix" result="effect1_dropShadow_6_87"/>
<feBlend mode="normal" in="SourceGraphic" in2="effect1_dropShadow_6_87" result="shape"/>
</filter>
</defs>
</svg>
