<svg width="89" height="89" viewBox="0 0 89 89" fill="none" xmlns="http://www.w3.org/2000/svg">
<g filter="url(#filter0_d_6_84)">
<circle cx="42.5" cy="42.5" r="36.5" transform="rotate(180 42.5 42.5)" fill="#319F1C"/>
<circle cx="42.5" cy="42.5" r="34" transform="rotate(180 42.5 42.5)" stroke="white" stroke-width="5"/>
</g>
<path d="M31.602 42.9576C31.4067 43.1528 31.4067 43.4694 31.602 43.6647L34.784 46.8467C34.9792 47.0419 35.2958 47.0419 35.4911 46.8467C35.6863 46.6514 35.6863 46.3348 35.4911 46.1396L32.6627 43.3111L35.4911 40.4827C35.6863 40.2874 35.6863 39.9709 35.4911 39.7756C35.2958 39.5803 34.9792 39.5803 34.784 39.7756L31.602 42.9576ZM51.4222 42.8111L31.9555 42.8111L31.9555 43.8111L51.4222 43.8111L51.4222 42.8111Z" fill="white"/>
<defs>
<filter id="filter0_d_6_84" x="0" y="0" width="89" height="89" filterUnits="userSpaceOnUse" color-interpolation-filters="sRGB">
<feFlood flood-opacity="0" result="BackgroundImageFix"/>
<feColorMatrix in="SourceAlpha" type="matrix" values="0 0 0 0 0 0 0 0 0 0 0 0 0 0 0 0 0 0 127 0" result="hardAlpha"/>
<feOffset dx="2" dy="2"/>
<feGaussianBlur stdDeviation="4"/>
<feColorMatrix type="matrix" values="0 0 0 0 0 0 0 0 0 0 0 0 0 0 0 0 0 0 0.25 0"/>
<feBlend mode="normal" in2="BackgroundImageFix" result="effect1_dropShadow_6_84"/>
<feBlend mode="normal" in="SourceGraphic" in2="effect1_dropShadow_6_84" result="shape"/>
</filter>
</defs>
</svg>
